<?xml version="1.0" encoding="UTF-8"?>
<svg xmlns="http://www.w3.org/2000/svg" viewBox="0 0 402.3 248.61">
  <defs>
    <style>
      .cls-1 {
        opacity: .85;
      }

      .cls-2 {
        mix-blend-mode: multiply;
      }

      .cls-2, .cls-3 {
        fill: #fff;
        stroke-width: 0px;
      }

      .cls-4 {
        isolation: isolate;
      }
    </style>
  </defs>
  <g class="cls-4">
    <g id="Layer_1" data-name="Layer 1">
      <path class="cls-3" d="m309.09,196.58h-145.33c-30.88,0-56-25.12-56-56s25.12-56,56-56h22.2c5.52,0,10,4.48,10,10s-4.48,10-10,10h-22.2c-19.85,0-36,16.15-36,36s16.15,36,36,36h145.33c5.52,0,10,4.48,10,10s-4.48,10-10,10Z"/>
      <path class="cls-3" d="m119.81,224.16c-.99,0-2-.15-3-.46-5.27-1.66-8.2-7.27-6.54-12.54L170.19,20.48c1.23-3.93,4.75-6.7,8.86-6.98,4.11-.29,7.97,1.99,9.73,5.71l21.08,44.68c2.36,5,.22,10.95-4.78,13.31-5,2.36-10.95.22-13.31-4.78l-10.16-21.54-52.25,166.27c-1.34,4.27-5.29,7-9.54,7Z"/>
      <path class="cls-3" d="m310.02,224.16c-4.25,0-8.19-2.73-9.54-7l-52.25-166.27-10.16,21.54c-2.36,4.99-8.31,7.13-13.31,4.78-4.99-2.36-7.13-8.32-4.78-13.31l21.08-44.68c1.76-3.72,5.61-5.99,9.73-5.71,4.11.28,7.62,3.05,8.86,6.98l59.92,190.68c1.66,5.27-1.27,10.88-6.54,12.54-1,.31-2.01.46-3,.46Z"/>
      <path class="cls-3" d="m242.52,84.58c-5.74,0-10.36,4.84-9.98,10.67.34,5.31,5,9.33,10.32,9.33h66.95c5.52,0,10-4.48,10-10h0c0-5.52-4.48-10-10-10h-67.29Z"/>
      <path class="cls-3" d="m134.47,119.67c6.54-9.13,17.22-15.1,29.28-15.1h22.2c5.52,0,10-4.48,10-10s-4.48-10-10-10h-22.2c-13.52,0-25.94,4.82-35.62,12.82.86,7.65,3.29,15.16,6.34,22.27Z"/>
      <g class="cls-1">
        <g>
          <path class="cls-3" d="m213.44,141.12c-2.76,2.74-7.25,4.2-10.75,4.29,7.79-2.8,13.49-11.51,15.25-18.81-2.44,1.27-5.85,2.56-8.62,1.91,5.49-1.62,9.82-6.2,12.87-10.91.17-.26.35-.56.52-.85,2.39-3.97,4.4-8.21,6.41-12.39,2.35-4.88,5.44-5.87,5.44-5.87-8.36-2.63-18.31-2.83-25.88,2.01-6.63,4.24-9.44,11.27-10.21,18.92-1.1-3.71-.65-7.73.91-11.25-2.28,2.41-3.19,6.67-3.35,9.87,0,0-.32-3.86.47-7.69-5.11,7.56-6.61,15.89-6.19,24.88-1.77-4.99-1.54-10.58-1.01-15.77-2.96,6.84-4.86,13.95-5.45,21.31-.31,3.84.37,7.29,1.5,10.96-2.03-.47-3.95-.5-3.95-.5,2.93,2.42,5.73,5.32,6.92,9.06l.64.59c4.72-3.12,9.27-6.35,14.9-6.9,0,0-1.06-1.19-3.91-1.57,1.87-1.16,10.32-5.06,13.46-11.29Z"/>
          <path class="cls-2" d="m220.85,105.27c-4.34,3.73-8.11,8.08-11.78,12.48-4.22,5.06-7.61,10.39-10.28,16.47-2.86,6.53-4.96,13.33-7.52,19.96-.81,2.1-1.77,4.2-2.71,6.32l.43.39c4.72-3.12,9.27-6.35,14.9-6.9,0,0-1.06-1.19-3.91-1.57,1.87-1.16,10.32-5.06,13.46-11.29-2.76,2.74-7.25,4.2-10.75,4.29,7.79-2.8,13.49-11.51,15.25-18.81-2.44,1.27-5.85,2.56-8.62,1.91,5.49-1.62,9.82-6.2,12.87-10.91.17-.26.35-.56.52-.85,2.39-3.97,4.4-8.21,6.41-12.39,2.35-4.88,5.44-5.87,5.44-5.87-6.82.67-9.93,3.52-13.71,6.78Z"/>
          <path class="cls-3" d="m209.05,105.71c-2.06,2.24-3.76,5.94-4.04,9-.29,3.04-.2,6.55-1.22,8.77-2.33,5.07-4.9,10.17-7.04,15.27-3.34,7.96-7.48,17.7-10.51,23.12.6.19,3.12,1.33,3.72,1.52,2.64-8.49,7.32-24.93,13.64-36.32,2.32-4.18,4.15-4.27,5.89-4.77,3.94-1.15,7.88-3.39,10.33-6.47,2.6-3.27,4.18-6.75,5.67-10.84,1.22-3.35,3.03-5.03,3.03-5.03-6.72-1-14.67.54-19.47,5.75Z"/>
          <path class="cls-3" d="m210.65,106.25c4.23-4.63,11.61-5.17,12.86-3.53,1.23,1.6.03,7.03-4.39,11.66-2.36,2.47-7.85,6.2-10.58,4.02-3.1-2.47-1.32-8.4,2.11-12.15Z"/>
          <path class="cls-3" d="m217.11,114.52c-2.25,2.57-5.81,3.72-7.64,2.48-2.5-1.7-.78-6.48,1.02-8.62,2.39-2.83,6.05-4.04,8.3-2.23,1.78,1.43.71,5.66-1.67,8.38Z"/>
        </g>
        <path class="cls-3" d="m189.92,164.39l-2.17-.98-2.17-.98c-1.43,2.33-3.7,3.22-3.7,3.22.67,6.25.07,10.93.07,10.93,0,0,3.5-4.03,8.08-7.24,0,0-.86-2.31-.1-4.94Z"/>
        <path class="cls-3" d="m187.56,167.75c-.36.81-1.29,1.17-2.08.81-.79-.36-1.15-1.31-.79-2.12.36-.81,1.29-1.17,2.08-.81.79.36,1.15,1.31.79,2.12Z"/>
        <polygon class="cls-3" points="191.32 162.97 186.01 160.56 185.26 162.28 190.57 164.68 191.32 162.97"/>
      </g>
      <g>
        <path class="cls-3" d="m146.82,216.71h-2.91l-.75-2.21h-4.04l-.75,2.21h-2.83l4.03-10.91h3.24l4.03,10.91Zm-4.34-4.2l-1.34-3.91-1.34,3.91h2.68Z"/>
        <path class="cls-3" d="m156.83,212.48c0,1.29-.36,2.35-1.07,3.16-.72.82-1.61,1.22-2.68,1.22-.46,0-.86-.05-1.21-.15s-.68-.24-.99-.42l-.11.41h-2.53v-11.4h2.64v4.03c.41-.32.82-.58,1.24-.78.42-.2.91-.3,1.46-.3,1.04,0,1.84.38,2.4,1.12.56.75.84,1.78.84,3.1Zm-2.72.05c0-.73-.12-1.3-.37-1.69-.25-.39-.69-.59-1.33-.59-.25,0-.51.04-.77.11-.26.08-.52.18-.75.33v4.13c.19.07.37.12.54.14s.38.04.62.04c.7,0,1.22-.21,1.56-.62s.51-1.03.51-1.85Z"/>
        <path class="cls-3" d="m166.73,216.71h-2.64v-.86c-.45.37-.88.64-1.27.82s-.85.26-1.37.26c-1,0-1.8-.38-2.4-1.16s-.9-1.81-.9-3.12c0-.7.1-1.32.3-1.86.2-.54.48-1,.83-1.39.33-.37.73-.65,1.21-.85.47-.2.95-.3,1.42-.3s.9.05,1.21.16c.32.11.64.24.97.4v-3.5h2.64v11.4Zm-2.64-2.27v-4.04c-.19-.08-.38-.13-.59-.17s-.39-.05-.56-.05c-.69,0-1.21.22-1.56.65-.35.43-.52,1.03-.52,1.8,0,.81.14,1.39.42,1.75.28.36.73.55,1.34.55.24,0,.49-.05.76-.14.27-.09.51-.21.71-.36Z"/>
        <path class="cls-3" d="m177.42,216.71h-2.64v-.91c-.49.37-.94.65-1.34.85-.41.19-.89.29-1.45.29-.91,0-1.61-.26-2.1-.78-.49-.52-.74-1.29-.74-2.31v-5.35h2.65v4.08c0,.42.01.76.04,1.04.03.28.09.5.19.69.09.18.23.31.42.39.19.08.45.12.79.12.22,0,.47-.04.75-.12.27-.08.54-.21.79-.37v-5.83h2.64v8.22Z"/>
        <path class="cls-3" d="m182.54,216.71h-2.64v-11.4h2.64v11.4Z"/>
        <path class="cls-3" d="m187.67,216.71h-2.64v-11.4h2.64v11.4Z"/>
        <path class="cls-3" d="m195.14,215.84c-.14.11-.32.24-.53.39s-.41.27-.59.36c-.26.12-.53.2-.81.26-.28.06-.58.08-.92.08-.78,0-1.44-.24-1.96-.73-.53-.48-.79-1.1-.79-1.85,0-.6.13-1.09.4-1.47.27-.38.65-.68,1.14-.9.49-.22,1.09-.38,1.82-.47.72-.09,1.47-.16,2.25-.21v-.04c0-.45-.19-.77-.56-.94-.37-.17-.92-.26-1.64-.26-.43,0-.9.08-1.39.23-.49.15-.85.27-1.06.36h-.24v-1.98c.28-.07.73-.16,1.36-.26.63-.1,1.26-.15,1.89-.15,1.5,0,2.58.23,3.25.69.67.46,1,1.19,1,2.17v5.6h-2.61v-.87Zm0-1.28v-1.71c-.36.03-.74.07-1.16.12-.42.05-.73.11-.95.18-.26.08-.46.2-.6.36-.14.16-.21.37-.21.63,0,.17.01.31.04.42s.1.21.22.31c.11.1.25.17.4.22.16.05.4.07.73.07.26,0,.53-.05.8-.16.27-.11.51-.25.71-.43Z"/>
        <path class="cls-3" d="m208.44,216.71h-2.65v-4.08c0-.33-.02-.66-.05-.99-.04-.33-.09-.57-.18-.73-.1-.18-.24-.31-.43-.4-.19-.08-.45-.12-.79-.12-.24,0-.48.04-.73.12-.25.08-.51.2-.8.37v5.83h-2.64v-11.4h2.64v4.08c.47-.37.92-.65,1.35-.84.43-.2.91-.29,1.44-.29.89,0,1.58.26,2.08.78.5.52.75,1.29.75,2.32v5.35Z"/>
        <path class="cls-3" d="m226.11,216.71h-2.8v-7.3l-2.02,4.74h-1.94l-2.02-4.74v7.3h-2.65v-10.91h3.27l2.45,5.47,2.45-5.47h3.27v10.91Z"/>
        <path class="cls-3" d="m233.73,215.84c-.14.11-.32.24-.53.39s-.41.27-.59.36c-.26.12-.53.2-.81.26-.28.06-.58.08-.92.08-.78,0-1.44-.24-1.96-.73-.53-.48-.79-1.1-.79-1.85,0-.6.13-1.09.4-1.47.27-.38.65-.68,1.14-.9.49-.22,1.09-.38,1.82-.47.72-.09,1.47-.16,2.25-.21v-.04c0-.45-.19-.77-.56-.94-.37-.17-.92-.26-1.64-.26-.43,0-.9.08-1.39.23-.49.15-.85.27-1.06.36h-.24v-1.98c.28-.07.73-.16,1.36-.26.63-.1,1.26-.15,1.89-.15,1.5,0,2.58.23,3.25.69.67.46,1,1.19,1,2.17v5.6h-2.61v-.87Zm0-1.28v-1.71c-.36.03-.74.07-1.16.12-.42.05-.73.11-.95.18-.26.08-.46.2-.6.36-.14.16-.21.37-.21.63,0,.17.01.31.04.42s.1.21.22.31c.11.1.25.17.4.22.16.05.4.07.73.07.26,0,.53-.05.8-.16.27-.11.51-.25.71-.43Z"/>
        <path class="cls-3" d="m247.03,216.71h-2.65v-4.08c0-.33-.02-.66-.05-.99-.04-.33-.09-.57-.18-.73-.1-.18-.24-.31-.43-.4-.19-.08-.45-.12-.79-.12-.24,0-.48.04-.73.12-.25.08-.51.2-.8.37v5.83h-2.64v-11.4h2.64v4.08c.47-.37.92-.65,1.35-.84.43-.2.91-.29,1.44-.29.89,0,1.58.26,2.08.78.5.52.75,1.29.75,2.32v5.35Z"/>
        <path class="cls-3" d="m257.49,210.88v5.83h-2.65v-4.11c0-.4,0-.74-.03-1.02-.02-.28-.07-.51-.16-.68s-.22-.3-.4-.38c-.18-.08-.43-.12-.75-.12-.26,0-.51.05-.75.16-.24.1-.46.22-.66.33v5.83h-2.64v-8.22h2.64v.91c.45-.36.89-.63,1.3-.84.42-.2.87-.3,1.38-.3.54,0,1.02.12,1.44.36.42.24.74.6.97,1.07.53-.44,1.04-.79,1.54-1.05s.99-.38,1.46-.38c.89,0,1.56.27,2.03.8.46.53.69,1.3.69,2.3v5.35h-2.65v-4.11c0-.4,0-.75-.03-1.03-.02-.28-.07-.5-.16-.68-.08-.18-.21-.3-.39-.38-.18-.08-.44-.12-.76-.12-.22,0-.44.04-.64.11-.21.08-.47.2-.77.38Z"/>
        <path class="cls-3" d="m273.73,212.6c0,1.35-.39,2.42-1.18,3.2-.79.78-1.9,1.17-3.32,1.17s-2.53-.39-3.32-1.17c-.79-.78-1.18-1.84-1.18-3.2s.4-2.43,1.19-3.21c.79-.78,1.9-1.17,3.31-1.17s2.55.39,3.33,1.17c.78.78,1.18,1.85,1.18,3.2Zm-3.25,2c.17-.21.3-.46.38-.76.09-.3.13-.7.13-1.23,0-.48-.04-.89-.13-1.22-.09-.33-.21-.59-.37-.78-.16-.2-.34-.34-.56-.42s-.46-.12-.71-.12-.48.03-.68.1c-.2.07-.39.21-.57.41-.16.19-.29.45-.38.78-.1.33-.14.75-.14,1.25,0,.45.04.84.12,1.17.08.33.21.59.37.79.16.19.34.33.56.42.22.09.46.13.74.13.24,0,.47-.04.68-.12.22-.08.4-.22.55-.41Z"/>
        <path class="cls-3" d="m283.82,216.71h-2.64v-.91c-.49.37-.94.65-1.34.85-.41.19-.89.29-1.45.29-.91,0-1.61-.26-2.1-.78-.49-.52-.74-1.29-.74-2.31v-5.35h2.65v4.08c0,.42.01.76.04,1.04.03.28.09.5.19.69.09.18.23.31.42.39.19.08.45.12.79.12.22,0,.47-.04.75-.12.27-.08.54-.21.79-.37v-5.83h2.64v8.22Z"/>
        <path class="cls-3" d="m294.3,216.71h-2.64v-.86c-.45.37-.88.64-1.27.82s-.85.26-1.37.26c-1,0-1.8-.38-2.4-1.16-.6-.77-.9-1.81-.9-3.12,0-.7.1-1.32.3-1.86.2-.54.48-1,.83-1.39.33-.37.73-.65,1.21-.85.47-.2.95-.3,1.42-.3s.9.05,1.21.16c.32.11.64.24.97.4v-3.5h2.64v11.4Zm-2.64-2.27v-4.04c-.19-.08-.38-.13-.59-.17s-.39-.05-.56-.05c-.69,0-1.21.22-1.56.65-.35.43-.52,1.03-.52,1.8,0,.81.14,1.39.42,1.75.28.36.73.55,1.34.55.24,0,.49-.05.76-.14.27-.09.5-.21.71-.36Z"/>
      </g>
    </g>
  </g>
</svg>